# Blender v3.1.2 OBJ File: ''
# www.blender.org
mtllib Obs_2.mtl
o Cube.001_Cube.006
v -0.100000 0.000000 2.100000
v -0.100000 6.000000 2.100000
v -0.100000 0.000000 1.900000
v -0.100000 6.000000 1.900000
v 0.100000 0.000000 2.100000
v 0.100000 6.000000 2.100000
v 0.100000 0.000000 1.900000
v 0.100000 6.000000 1.900000
v -0.100000 0.000000 -1.900000
v -0.100000 6.000000 -1.900000
v -0.100000 0.000000 -2.100000
v -0.100000 6.000000 -2.100000
v 0.100000 0.000000 -1.900000
v 0.100000 6.000000 -1.900000
v 0.100000 0.000000 -2.100000
v 0.100000 6.000000 -2.100000
v 0.073910 3.353629 2.317513
v 0.073910 4.152573 2.276411
v 0.073910 3.117289 -2.276411
v 0.073910 3.916233 -2.317513
v 0.173910 3.353629 2.317513
v 0.173910 4.152573 2.276411
v 0.173910 3.117289 -2.276411
v 0.173910 3.916233 -2.317513
v 0.073910 4.213617 2.304749
v 0.073910 5.013556 2.294902
v 0.073910 4.156993 -2.294902
v 0.073910 4.956933 -2.304749
v 0.173910 4.213617 2.304749
v 0.173910 5.013556 2.294902
v 0.173910 4.156993 -2.294902
v 0.173910 4.956933 -2.304749
v 0.073910 5.139767 2.310617
v 0.073910 5.939431 2.287455
v 0.073910 5.006583 -2.287455
v 0.073910 5.806248 -2.310617
v 0.173910 5.139767 2.310617
v 0.173910 5.939431 2.287455
v 0.173910 5.006583 -2.287455
v 0.173910 5.806248 -2.310617
vt 0.909091 0.000000
vt 0.909091 0.454545
vt 0.878788 0.454545
vt 0.878788 0.000000
vt 0.787878 0.000000
vt 0.787878 0.454545
vt 0.757575 0.454545
vt 0.757575 0.000000
vt 0.878788 0.000000
vt 0.878788 0.454545
vt 0.848485 0.454545
vt 0.848485 0.000000
vt 0.818181 0.454545
vt 0.818181 0.000000
vt 0.121212 0.696969
vt 0.121212 0.727272
vt 0.090909 0.727272
vt 0.090909 0.696969
vt 0.090909 0.696969
vt 0.090909 0.727272
vt 0.060606 0.727272
vt 0.060606 0.696969
vt 0.757575 0.454545
vt 0.757575 0.909090
vt 0.727272 0.909090
vt 0.727272 0.454545
vt 0.818181 0.000000
vt 0.818181 0.454545
vt 0.787878 0.454545
vt 0.787878 0.000000
vt 0.787878 0.454545
vt 0.787878 0.909090
vt 0.757575 0.909090
vt 0.757575 0.454545
vt 0.757575 0.000000
vt 0.757575 0.454545
vt 0.727272 0.454545
vt 0.727272 0.000000
vt 0.181818 0.696969
vt 0.181818 0.727272
vt 0.151515 0.727272
vt 0.151515 0.696969
vt 0.151515 0.696969
vt 0.151515 0.727272
vt 0.121212 0.727272
vt 0.121212 0.696969
vt 0.606060 0.696969
vt 0.484848 0.696969
vt 0.484848 0.000000
vt 0.606060 0.000000
vt 0.803030 0.454545
vt 0.803030 0.575757
vt 0.787878 0.575757
vt 0.787878 0.454545
vt 0.484848 0.696969
vt 0.363636 0.696969
vt 0.363636 0.000000
vt 0.484848 0.000000
vt 0.803030 0.575757
vt 0.803030 0.696969
vt 0.787878 0.696969
vt 0.787878 0.575757
vt 0.954545 0.000000
vt 0.969697 0.000000
vt 0.969697 0.696969
vt 0.954545 0.696969
vt 0.939394 0.000000
vt 0.954545 0.000000
vt 0.954545 0.696969
vt 0.939394 0.696969
vt 0.727272 0.696969
vt 0.606060 0.696969
vt 0.606060 0.000000
vt 0.727272 0.000000
vt 0.030303 0.696969
vt 0.030303 0.818181
vt 0.015152 0.818181
vt 0.015152 0.696969
vt 0.242424 0.696969
vt 0.121212 0.696969
vt 0.121212 0.000000
vt 0.242424 0.000000
vt 0.045455 0.696969
vt 0.045455 0.818181
vt 0.030303 0.818181
vt 0.030303 0.696969
vt 0.924242 0.000000
vt 0.939394 0.000000
vt 0.939394 0.696969
vt 0.924242 0.696969
vt 0.969697 0.000000
vt 0.984848 0.000000
vt 0.984848 0.696969
vt 0.969697 0.696969
vt 0.363636 0.696969
vt 0.242424 0.696969
vt 0.242424 0.000000
vt 0.363636 0.000000
vt 0.060606 0.696969
vt 0.060606 0.818181
vt 0.045455 0.818181
vt 0.045455 0.696969
vt 0.121212 0.696969
vt 0.000000 0.696969
vt 0.000000 0.000000
vt 0.121212 0.000000
vt 0.015152 0.696969
vt 0.015152 0.818181
vt 0.000000 0.818181
vt 0.000000 0.696969
vt 0.909091 0.000000
vt 0.924242 0.000000
vt 0.924242 0.696969
vt 0.909091 0.696969
vt 0.984849 0.000000
vt 1.000000 0.000000
vt 1.000000 0.696969
vt 0.984848 0.696969
vn -1.0000 0.0000 0.0000
vn 0.0000 0.0000 -1.0000
vn 1.0000 0.0000 0.0000
vn 0.0000 0.0000 1.0000
vn 0.0000 -1.0000 0.0000
vn 0.0000 1.0000 0.0000
vn 0.0000 -0.0514 -0.9987
vn 0.0000 0.0514 0.9987
vn 0.0000 -0.9987 0.0514
vn 0.0000 0.9987 -0.0514
vn 0.0000 -0.0123 -0.9999
vn 0.0000 0.0123 0.9999
vn 0.0000 -0.9999 0.0123
vn 0.0000 0.9999 -0.0123
vn 0.0000 -0.0290 -0.9996
vn 0.0000 0.0290 0.9996
vn 0.0000 -0.9996 0.0290
vn 0.0000 0.9996 -0.0290
usemtl Material.002
s off
f 1/1/1 2/2/1 4/3/1 3/4/1
f 3/5/2 4/6/2 8/7/2 7/8/2
f 7/9/3 8/10/3 6/11/3 5/12/3
f 5/12/4 6/11/4 2/13/4 1/14/4
f 3/15/5 7/16/5 5/17/5 1/18/5
f 8/19/6 4/20/6 2/21/6 6/22/6
f 9/23/1 10/24/1 12/25/1 11/26/1
f 11/27/2 12/28/2 16/29/2 15/30/2
f 15/31/3 16/32/3 14/33/3 13/34/3
f 13/35/4 14/36/4 10/37/4 9/38/4
f 11/39/5 15/40/5 13/41/5 9/42/5
f 16/43/6 12/44/6 10/45/6 14/46/6
f 17/47/1 18/48/1 20/49/1 19/50/1
f 19/51/7 20/52/7 24/53/7 23/54/7
f 23/55/3 24/56/3 22/57/3 21/58/3
f 21/59/8 22/60/8 18/61/8 17/62/8
f 19/63/9 23/64/9 21/65/9 17/66/9
f 24/67/10 20/68/10 18/69/10 22/70/10
f 25/71/1 26/72/1 28/73/1 27/74/1
f 27/75/11 28/76/11 32/77/11 31/78/11
f 31/79/3 32/80/3 30/81/3 29/82/3
f 29/83/12 30/84/12 26/85/12 25/86/12
f 27/87/13 31/88/13 29/89/13 25/90/13
f 32/91/14 28/92/14 26/93/14 30/94/14
f 33/95/1 34/96/1 36/97/1 35/98/1
f 35/99/15 36/100/15 40/101/15 39/102/15
f 39/103/3 40/104/3 38/105/3 37/106/3
f 37/107/16 38/108/16 34/109/16 33/110/16
f 35/111/17 39/112/17 37/113/17 33/114/17
f 40/115/18 36/116/18 34/117/18 38/118/18
